# xmcd
#
# Track frame offsets:
#	150
#	11825
#	25235
#	44782
#	62225
#	79925
#	96445
#	115202
#	129755
#	144620
#
# Disc length: 2115 seconds
#
# Revision: 1
# Processed by: cddbd v1.4PL0 Copyright (c) Steve Scherf et al.
# Submitted via: audiograbber 1.81.03
#
DISCID=8d08410a
DTITLE=Keith Glass - Going Over Old Ground
DYEAR=1989
DGENRE=Pop
TTITLE0=It And A Bit
TTITLE1=When Stan Was The Man
TTITLE2=Outback (In Our Backyard)
TTITLE3=Going Over Old Ground
TTITLE4=Congratulations
TTITLE5=Home And Away Game
TTITLE6=Hell Of A Job
TTITLE7=Victoria Bitter (She Made Me That Way)
TTITLE8=Too Good To Be True
TTITLE9=(I'm In A) Rage Without Alcohol
EXTD=
EXTT0=
EXTT1=
EXTT2=
EXTT3=
EXTT4=
EXTT5=
EXTT6=
EXTT7=
EXTT8=
EXTT9=
PLAYORDER=
